<svg width="41" height="40" viewBox="0 0 41 40" fill="none" xmlns="http://www.w3.org/2000/svg">
<rect x="0.333374" width="40" height="40" rx="20" fill="#F5F6E9"/>
<path d="M20.3334 17.52C19.8429 17.52 19.3634 17.6654 18.9556 17.938C18.5477 18.2105 18.2299 18.5978 18.0422 19.0509C17.8544 19.5041 17.8053 20.0028 17.901 20.4838C17.9967 20.9649 18.2329 21.4068 18.5797 21.7536C18.9266 22.1005 19.3685 22.3367 19.8496 22.4323C20.3306 22.528 20.8293 22.4789 21.2824 22.2912C21.7356 22.1035 22.1229 21.7856 22.3954 21.3778C22.6679 20.97 22.8134 20.4905 22.8134 20C22.8134 19.6743 22.7492 19.3518 22.6246 19.0509C22.5 18.7501 22.3173 18.4767 22.087 18.2464C21.8567 18.0161 21.5833 17.8334 21.2824 17.7088C20.9815 17.5841 20.6591 17.52 20.3334 17.52ZM30.2634 15.07C30.2581 14.2978 30.1159 13.5326 29.8434 12.81C29.6427 12.2813 29.3321 11.8011 28.9322 11.4012C28.5323 11.0013 28.0521 10.6907 27.5234 10.49C26.8008 10.2175 26.0356 10.0753 25.2634 10.07C23.9734 10 23.5934 10 20.3334 10C17.0734 10 16.6934 10 15.4034 10.07C14.6311 10.0753 13.8659 10.2175 13.1434 10.49C12.6146 10.6907 12.1345 11.0013 11.7346 11.4012C11.3347 11.8011 11.0241 12.2813 10.8234 12.81C10.5508 13.5326 10.4086 14.2978 10.4034 15.07C10.3334 16.36 10.3334 16.74 10.3334 20C10.3334 23.26 10.3334 23.64 10.4034 24.93C10.4141 25.705 10.5561 26.4725 10.8234 27.2C11.0232 27.7263 11.3335 28.2037 11.7334 28.6C12.1316 29.0023 12.6128 29.3129 13.1434 29.51C13.8659 29.7825 14.6311 29.9247 15.4034 29.93C16.6934 30 17.0734 30 20.3334 30C23.5934 30 23.9734 30 25.2634 29.93C26.0356 29.9247 26.8008 29.7825 27.5234 29.51C28.054 29.3129 28.5352 29.0023 28.9334 28.6C29.3332 28.2037 29.6435 27.7263 29.8434 27.2C30.1156 26.4739 30.2578 25.7055 30.2634 24.93C30.3334 23.64 30.3334 23.26 30.3334 20C30.3334 16.74 30.3334 16.36 30.2634 15.07ZM27.7234 23.07C27.6913 23.6871 27.5596 24.295 27.3334 24.87C27.1392 25.3497 26.8506 25.7854 26.4847 26.1514C26.1188 26.5173 25.6831 26.8059 25.2034 27C24.6229 27.2136 24.0116 27.3318 23.3934 27.35C22.6034 27.35 22.3934 27.35 20.3334 27.35C18.2734 27.35 18.0634 27.35 17.2734 27.35C16.6551 27.3318 16.0439 27.2136 15.4634 27C14.9675 26.8157 14.5197 26.5217 14.1534 26.14C13.791 25.7813 13.5112 25.3479 13.3334 24.87C13.1189 24.2901 13.004 23.6782 12.9934 23.06C12.9934 22.27 12.9934 22.06 12.9934 20C12.9934 17.94 12.9934 17.73 12.9934 16.94C13.004 16.3218 13.1189 15.7099 13.3334 15.13C13.5177 14.6341 13.8116 14.1863 14.1934 13.82C14.5537 13.4596 14.9866 13.1801 15.4634 13C16.0439 12.7864 16.6551 12.6682 17.2734 12.65C18.0634 12.65 18.2734 12.65 20.3334 12.65C22.3934 12.65 22.6034 12.65 23.3934 12.65C24.0116 12.6682 24.6229 12.7864 25.2034 13C25.6993 13.1843 26.1471 13.4783 26.5134 13.86C26.8757 14.2187 27.1555 14.6521 27.3334 15.13C27.547 15.7105 27.6652 16.3217 27.6834 16.94C27.6834 17.73 27.6834 17.94 27.6834 20C27.6834 22.06 27.7534 22.27 27.7234 23.06V23.07ZM26.1234 15.63C26.0043 15.307 25.8166 15.0136 25.5732 14.7702C25.3297 14.5268 25.0364 14.3391 24.7134 14.22C24.2698 14.0663 23.8027 13.9918 23.3334 14C22.5534 14 22.3334 14 20.3334 14C18.3334 14 18.1134 14 17.3334 14C16.8616 14.0046 16.3944 14.0926 15.9534 14.26C15.6353 14.3737 15.3451 14.5537 15.102 14.7882C14.8588 15.0227 14.6684 15.3062 14.5434 15.62C14.3982 16.0654 14.3272 16.5316 14.3334 17C14.3334 17.78 14.3334 18 14.3334 20C14.3334 22 14.3334 22.22 14.3334 23C14.3433 23.4712 14.4311 23.9375 14.5934 24.38C14.7124 24.703 14.9002 24.9964 15.1436 25.2398C15.387 25.4832 15.6804 25.6709 16.0034 25.79C16.43 25.9469 16.879 26.0347 17.3334 26.05C18.1134 26.05 18.3334 26.05 20.3334 26.05C22.3334 26.05 22.5534 26.05 23.3334 26.05C23.8051 26.0454 24.2723 25.9574 24.7134 25.79C25.0364 25.6709 25.3297 25.4832 25.5732 25.2398C25.8166 24.9964 26.0043 24.703 26.1234 24.38C26.2907 23.9389 26.3788 23.4717 26.3834 23C26.3834 22.22 26.3834 22 26.3834 20C26.3834 18 26.3834 17.78 26.3834 17C26.3837 16.5278 26.2955 16.0597 26.1234 15.62V15.63ZM20.3334 23.82C19.8322 23.82 19.3359 23.7211 18.873 23.529C18.4101 23.3369 17.9897 23.0554 17.6358 22.7005C17.2818 22.3457 17.0014 21.9245 16.8105 21.4611C16.6196 20.9977 16.5221 20.5012 16.5234 20C16.5234 19.2441 16.7477 18.5051 17.1679 17.8767C17.5881 17.2483 18.1852 16.7587 18.8838 16.4698C19.5824 16.181 20.351 16.1059 21.0923 16.2541C21.8336 16.4024 22.5142 16.7672 23.0481 17.3024C23.5819 17.8376 23.9449 18.5192 24.0912 19.2609C24.2375 20.0026 24.1604 20.771 23.8697 21.4688C23.5791 22.1666 23.0879 22.7625 22.4584 23.1811C21.8289 23.5996 21.0893 23.822 20.3334 23.82ZM24.3334 16.93C24.1123 16.9066 23.9077 16.8022 23.7591 16.637C23.6104 16.4717 23.5281 16.2573 23.5281 16.035C23.5281 15.8127 23.6104 15.5983 23.7591 15.433C23.9077 15.2678 24.1123 15.1634 24.3334 15.14C24.5544 15.1634 24.759 15.2678 24.9077 15.433C25.0564 15.5983 25.1386 15.8127 25.1386 16.035C25.1386 16.2573 25.0564 16.4717 24.9077 16.637C24.759 16.8022 24.5544 16.9066 24.3334 16.93Z" fill="#606336"/>
</svg>
