<svg width="41" height="40" viewBox="0 0 41 40" fill="none" xmlns="http://www.w3.org/2000/svg">
<rect x="0.666504" width="40" height="40" rx="20" fill="#F5F6E9"/>
<path d="M29.1366 10H12.1966C12.0061 9.99737 11.8171 10.0323 11.6401 10.1027C11.4632 10.1731 11.3019 10.2777 11.1654 10.4105C11.0289 10.5433 10.9198 10.7017 10.8446 10.8766C10.7693 11.0516 10.7292 11.2396 10.7266 11.43V28.57C10.7292 28.7604 10.7693 28.9485 10.8446 29.1234C10.9198 29.2983 11.0289 29.4567 11.1654 29.5895C11.3019 29.7223 11.4632 29.8269 11.6401 29.8973C11.8171 29.9678 12.0061 30.0027 12.1966 30H29.1366C29.327 30.0027 29.5161 29.9678 29.693 29.8973C29.8699 29.8269 30.0313 29.7223 30.1678 29.5895C30.3043 29.4567 30.4133 29.2983 30.4886 29.1234C30.5639 28.9485 30.604 28.7604 30.6066 28.57V11.43C30.604 11.2396 30.5639 11.0516 30.4886 10.8766C30.4133 10.7017 30.3043 10.5433 30.1678 10.4105C30.0313 10.2777 29.8699 10.1731 29.693 10.1027C29.5161 10.0323 29.327 9.99737 29.1366 10ZM16.7566 26.74H13.7566V17.74H16.7566V26.74ZM15.2566 16.48C14.8428 16.48 14.446 16.3157 14.1535 16.0231C13.8609 15.7305 13.6966 15.3338 13.6966 14.92C13.6966 14.5063 13.8609 14.1095 14.1535 13.8169C14.446 13.5244 14.8428 13.36 15.2566 13.36C15.4763 13.3351 15.6987 13.3569 15.9094 13.4239C16.1201 13.4909 16.3143 13.6017 16.4792 13.749C16.6441 13.8963 16.7761 14.0767 16.8664 14.2785C16.9568 14.4803 17.0035 14.6989 17.0035 14.92C17.0035 15.1411 16.9568 15.3597 16.8664 15.5615C16.7761 15.7633 16.6441 15.9438 16.4792 16.0911C16.3143 16.2383 16.1201 16.3491 15.9094 16.4161C15.6987 16.4832 15.4763 16.5049 15.2566 16.48ZM27.5766 26.74H24.5766V21.91C24.5766 20.7 24.1466 19.91 23.0566 19.91C22.7192 19.9125 22.3908 20.0183 22.1154 20.2132C21.84 20.4081 21.631 20.6827 21.5166 21C21.4383 21.2351 21.4044 21.4826 21.4166 21.73V26.73H18.4166C18.4166 26.73 18.4166 18.55 18.4166 17.73H21.4166V19C21.6891 18.5271 22.0855 18.1375 22.563 17.8732C23.0405 17.6089 23.5811 17.4799 24.1266 17.5C26.1266 17.5 27.5766 18.79 27.5766 21.56V26.74Z" fill="#606336"/>
</svg>
