<svg width="40" height="40" viewBox="0 0 40 40" fill="none" xmlns="http://www.w3.org/2000/svg">
<rect width="40" height="40" rx="20" fill="#F5F6E9"/>
<path d="M30 14.55C29.9888 14.1186 29.9554 13.688 29.9 13.26C29.8253 12.8851 29.7009 12.5219 29.53 12.18C29.3513 11.8091 29.1112 11.471 28.82 11.18C28.5261 10.8922 28.1886 10.6526 27.82 10.47C27.4776 10.3024 27.1144 10.1814 26.74 10.11C26.3161 10.0465 25.8886 10.0098 25.46 10H14.55C14.1186 10.0112 13.688 10.0446 13.26 10.1C12.8851 10.1747 12.5219 10.2991 12.18 10.47C11.8091 10.6487 11.471 10.8888 11.18 11.18C10.8922 11.4739 10.6526 11.8114 10.47 12.18C10.3024 12.5224 10.1814 12.8856 10.11 13.26C10.0465 13.6839 10.0098 14.1114 10 14.54C10 14.73 10 15 10 15.08V24.92C10 25.03 10 25.27 10 25.45C10.0112 25.8814 10.0446 26.312 10.1 26.74C10.1747 27.1149 10.2991 27.4781 10.47 27.82C10.6487 28.1909 10.8888 28.529 11.18 28.82C11.4739 29.1078 11.8114 29.3474 12.18 29.53C12.5224 29.6976 12.8856 29.8186 13.26 29.89C13.6839 29.9535 14.1114 29.9902 14.54 30H25.45C25.8814 29.9888 26.312 29.9554 26.74 29.9C27.1149 29.8253 27.4781 29.7009 27.82 29.53C28.1909 29.3513 28.529 29.1112 28.82 28.82C29.1078 28.5261 29.3474 28.1886 29.53 27.82C29.6976 27.4776 29.8186 27.1144 29.89 26.74C29.9535 26.3161 29.9902 25.8886 30 25.46C30 25.27 30 25.03 30 24.92V15.08C30 15 30 14.73 30 14.55ZM20.23 27C19.0291 26.9941 17.8491 26.6845 16.8 26.1L13 27.1L14 23.38C13.3551 22.2965 13.01 21.0609 13 19.8C13.004 18.3829 13.4272 16.9987 14.2164 15.8217C15.0055 14.6447 16.1253 13.7275 17.4347 13.1857C18.7441 12.6439 20.1846 12.5017 21.5747 12.7769C22.9648 13.0522 24.2423 13.7327 25.2464 14.7326C26.2505 15.7325 26.9363 17.0073 27.2173 18.3962C27.4984 19.7851 27.3622 21.2262 26.8258 22.5378C26.2894 23.8495 25.3769 24.9731 24.2032 25.7671C23.0295 26.5612 21.647 26.9901 20.23 27ZM20.23 13.87C19.1698 13.8821 18.1318 14.175 17.2216 14.7187C16.3113 15.2625 15.5615 16.0377 15.0483 16.9655C14.5351 17.8933 14.2769 18.9405 14.3001 20.0005C14.3232 21.0605 14.6268 22.0955 15.18 23L15.32 23.23L14.72 25.42L17 24.8L17.22 24.93C18.1296 25.4658 19.1644 25.7521 20.22 25.76C21.8113 25.76 23.3374 25.1279 24.4626 24.0026C25.5879 22.8774 26.22 21.3513 26.22 19.76C26.22 18.1687 25.5879 16.6426 24.4626 15.5174C23.3374 14.3921 21.8113 13.76 20.22 13.76L20.23 13.87ZM23.73 22.39C23.599 22.6085 23.4236 22.797 23.2152 22.9434C23.0068 23.0898 22.7699 23.1909 22.52 23.24C22.1465 23.3083 21.7621 23.2842 21.4 23.17C21.0593 23.0635 20.7254 22.9366 20.4 22.79C19.1637 22.1697 18.1094 21.2394 17.34 20.09C16.9219 19.5575 16.6682 18.9145 16.61 18.24C16.604 17.9598 16.6571 17.6815 16.7656 17.423C16.8741 17.1646 17.0357 16.9319 17.24 16.74C17.3002 16.6718 17.374 16.617 17.4567 16.5791C17.5393 16.5412 17.6291 16.521 17.72 16.52H18C18.11 16.52 18.26 16.52 18.4 16.83C18.54 17.14 18.91 18.07 18.96 18.16C18.9846 18.208 18.9974 18.2611 18.9974 18.315C18.9974 18.3689 18.9846 18.422 18.96 18.47C18.9158 18.5787 18.8551 18.6799 18.78 18.77C18.69 18.88 18.59 19.01 18.51 19.09C18.43 19.17 18.33 19.27 18.43 19.45C18.7021 19.9092 19.0389 20.3268 19.43 20.69C19.8559 21.0664 20.3429 21.3673 20.87 21.58C21.05 21.67 21.16 21.66 21.26 21.58C21.36 21.5 21.71 21.06 21.83 20.88C21.95 20.7 22.07 20.73 22.23 20.79C22.39 20.85 23.28 21.28 23.46 21.37C23.64 21.46 23.75 21.5 23.8 21.58C23.8434 21.8417 23.8193 22.1102 23.73 22.36V22.39Z" fill="#606336"/>
</svg>
