<svg width="16" height="16" viewBox="0 0 16 16" fill="none" xmlns="http://www.w3.org/2000/svg">
<path fill-rule="evenodd" clip-rule="evenodd" d="M1.33337 2.00004C1.33337 1.63185 1.63185 1.33337 2.00004 1.33337H6.66671C7.0349 1.33337 7.33337 1.63185 7.33337 2.00004V6.66671C7.33337 7.0349 7.0349 7.33337 6.66671 7.33337H2.00004C1.63185 7.33337 1.33337 7.0349 1.33337 6.66671V2.00004ZM2.66671 2.66671V6.00004H6.00004V2.66671H2.66671Z" fill="#ABB8CA"/>
<path fill-rule="evenodd" clip-rule="evenodd" d="M8.66663 2.00004C8.66663 1.63185 8.9651 1.33337 9.33329 1.33337H14C14.3681 1.33337 14.6666 1.63185 14.6666 2.00004V6.66671C14.6666 7.0349 14.3681 7.33337 14 7.33337H9.33329C8.9651 7.33337 8.66663 7.0349 8.66663 6.66671V2.00004ZM9.99996 2.66671V6.00004H13.3333V2.66671H9.99996Z" fill="#ABB8CA"/>
<path fill-rule="evenodd" clip-rule="evenodd" d="M8.66663 9.33329C8.66663 8.9651 8.9651 8.66663 9.33329 8.66663H14C14.3681 8.66663 14.6666 8.9651 14.6666 9.33329V14C14.6666 14.3681 14.3681 14.6666 14 14.6666H9.33329C8.9651 14.6666 8.66663 14.3681 8.66663 14V9.33329ZM9.99996 9.99996V13.3333H13.3333V9.99996H9.99996Z" fill="#ABB8CA"/>
<path fill-rule="evenodd" clip-rule="evenodd" d="M1.33337 9.33329C1.33337 8.9651 1.63185 8.66663 2.00004 8.66663H6.66671C7.0349 8.66663 7.33337 8.9651 7.33337 9.33329V14C7.33337 14.3681 7.0349 14.6666 6.66671 14.6666H2.00004C1.63185 14.6666 1.33337 14.3681 1.33337 14V9.33329ZM2.66671 9.99996V13.3333H6.00004V9.99996H2.66671Z" fill="#ABB8CA"/>
</svg>
